<?xml version="1.0" standalone="no"?>
<!DOCTYPE svg PUBLIC "-//W3C//DTD SVG 20010904//EN"
 "http://www.w3.org/TR/2001/REC-SVG-20010904/DTD/svg10.dtd">
<svg version="1.0" xmlns="http://www.w3.org/2000/svg"
 width="300.000000pt" height="300.000000pt" viewBox="0 0 300.000000 300.000000"
 preserveAspectRatio="xMidYMid meet">
<metadata>
Created by potrace 1.11, written by Peter Selinger 2001-2013
</metadata>
<g transform="translate(0.000000,300.000000) scale(0.100000,-0.100000)"
fill="#000000" stroke="none">
<path d="M711 2983 c-18 -20 -39 -75 -36 -95 2 -10 0 -18 -4 -18 -7 0 -13 -39
-14 -97 -1 -18 -4 -33 -8 -33 -3 0 -5 -11 -4 -25 2 -14 -1 -25 -6 -25 -6 0 -8
-4 -4 -10 9 -14 -6 -61 -17 -54 -5 4 -6 10 -1 15 4 4 6 73 3 152 -5 153 -12
173 -57 172 -21 0 -58 -25 -37 -25 5 0 3 -4 -4 -9 -10 -6 -13 -49 -15 -174 0
-92 -5 -167 -9 -167 -9 0 -9 -2 -13 75 -2 33 -6 72 -8 88 -3 15 0 27 7 27 6 0
5 4 -2 9 -8 4 -13 11 -13 15 4 26 -1 46 -9 41 -5 -3 -10 -1 -10 5 0 6 -4 8
-10 5 -5 -3 -10 0 -10 7 0 10 -2 10 -9 0 -4 -8 -11 -13 -15 -13 -3 1 -6 -2 -5
-5 0 -4 -5 -10 -12 -15 -10 -6 -14 -49 -15 -171 -1 -90 -2 -181 -3 -203 -1
-22 -1 -50 -1 -62 0 -32 -4 -47 -15 -55 -6 -5 -5 -8 3 -8 8 0 11 -10 7 -31 -8
-42 -8 -43 -5 -49 2 -6 7 -42 13 -112 3 -32 1 -47 -7 -45 -6 1 -10 -8 -10 -21
1 -12 -1 -21 -3 -18 -3 3 -12 -2 -20 -10 -8 -8 -19 -12 -24 -9 -5 4 -9 1 -9
-4 0 -6 -6 -11 -14 -11 -8 0 -17 -7 -20 -16 -3 -9 -11 -12 -18 -8 -7 5 -9 2
-5 -9 3 -9 2 -17 -3 -19 -8 -3 -16 -29 -19 -61 -1 -5 -5 -6 -10 -3 -5 3 -8 0
-8 -7 2 -21 -15 -92 -25 -104 -5 -7 -7 -17 -3 -23 3 -5 1 -10 -6 -10 -7 0 -9
-3 -6 -7 4 -3 2 -12 -4 -20 -6 -7 -8 -13 -4 -13 4 0 2 -7 -6 -16 -7 -9 -14
-23 -15 -32 -3 -22 -12 -57 -14 -57 -1 0 -4 -16 -7 -35 -2 -19 -9 -40 -14 -46
-5 -6 -7 -20 -4 -32 2 -12 0 -22 -5 -22 -5 0 -7 -7 -4 -15 4 -8 2 -15 -2 -15
-5 0 -10 -19 -11 -43 -3 -60 -5 -67 -17 -67 -6 0 -5 -4 3 -9 8 -5 9 -11 3 -15
-5 -3 -8 -19 -6 -36 2 -16 0 -30 -5 -30 -4 0 -7 -14 -6 -30 1 -17 -1 -33 -4
-35 -4 -2 -6 -20 -6 -39 1 -20 -1 -36 -5 -36 -3 0 -6 -16 -5 -35 1 -20 -1 -37
-4 -39 -3 -2 -6 -36 -5 -74 0 -43 -4 -68 -9 -65 -6 4 -7 1 -2 -7 5 -8 10 -41
11 -74 2 -32 8 -62 15 -66 8 -6 8 -9 -2 -13 -11 -4 -11 -6 -1 -6 7 -1 10 -6 7
-11 -7 -11 72 -183 87 -188 4 -2 8 -10 8 -18 0 -9 4 -13 9 -9 5 3 12 -4 16
-15 3 -11 12 -20 19 -20 7 0 19 -11 26 -25 7 -14 17 -25 22 -25 5 0 6 -4 3
-10 -3 -5 -2 -10 4 -10 6 0 56 -45 111 -99 55 -55 100 -97 100 -95 0 3 6 -1
14 -8 8 -7 12 -16 9 -20 -2 -5 0 -8 5 -8 5 0 28 -18 51 -40 23 -22 47 -40 53
-40 6 0 9 -3 6 -6 -3 -3 13 -23 37 -45 l42 -39 1141 0 1141 0 -4 22 c-3 13 -9
24 -15 26 -5 2 -10 10 -10 19 0 14 -32 65 -55 88 -19 20 -130 100 -161 117
-17 10 -34 15 -38 11 -3 -3 -6 0 -6 7 0 7 -3 11 -6 8 -3 -4 -17 0 -31 7 -15 8
-30 12 -35 9 -4 -3 -8 1 -8 10 0 9 -8 13 -25 11 -14 -1 -25 1 -25 5 0 4 -6 7
-12 8 -7 0 -22 3 -33 6 -11 2 -24 5 -28 5 -5 1 -6 5 -3 9 2 4 -10 8 -27 7 -18
0 -34 3 -37 7 -4 4 -23 9 -43 10 -20 2 -37 6 -37 11 0 4 -16 7 -35 7 -19 0
-35 5 -35 11 0 6 -9 9 -20 6 -11 -3 -23 -1 -26 4 -3 5 -10 7 -15 4 -5 -4 -9
-1 -9 4 0 6 -6 11 -14 11 -9 0 -12 7 -9 20 3 10 8 18 12 17 3 -1 31 16 61 38
30 22 58 38 63 37 4 -1 7 5 7 15 0 9 2 14 5 11 7 -7 85 70 122 119 15 21 34
44 41 51 7 8 10 17 7 22 -3 4 2 11 11 14 8 3 12 10 9 16 -3 5 -1 10 4 10 6 0
11 6 11 14 0 8 8 22 18 32 9 10 16 19 15 21 -7 9 -2 33 6 29 5 -4 8 2 6 11 -1
10 0 23 4 28 3 6 7 20 9 33 3 21 35 63 47 61 17 -4 46 11 40 20 -3 6 0 11 7
11 8 0 15 9 16 20 4 42 6 50 12 50 7 0 8 8 11 55 1 13 5 23 9 20 4 -3 6 11 4
30 -1 19 1 35 6 35 4 0 7 11 5 25 -1 14 1 25 5 25 3 0 6 30 6 66 -1 57 -4 68
-25 85 -12 10 -28 16 -34 12 -6 -4 -7 -1 -1 8 5 8 10 25 12 39 2 13 6 27 10
30 4 3 7 20 7 38 -1 17 1 32 4 32 3 0 6 28 5 63 0 34 4 68 9 75 6 8 6 12 -2
12 -7 0 -8 8 -1 24 5 13 6 27 3 30 -6 5 -13 72 -16 153 -1 17 -5 29 -8 27 -5
-3 -14 25 -20 64 0 4 -5 13 -11 20 -6 6 -7 12 -3 12 5 0 0 9 -9 19 -10 11 -15
25 -11 30 3 6 1 11 -4 11 -6 0 -11 6 -11 14 0 8 -7 17 -16 20 -9 4 -14 13 -10
22 3 8 2 12 -4 9 -6 -3 -10 -2 -10 4 0 23 -153 161 -179 161 -6 0 -11 5 -11
11 0 5 -4 7 -10 4 -5 -3 -10 -2 -10 3 0 5 -19 15 -42 23 -24 7 -48 20 -55 29
-10 12 -12 12 -13 1 0 -11 -3 -11 -15 -1 -8 7 -15 9 -15 4 0 -5 -4 -4 -8 2 -4
7 -20 14 -37 15 -16 2 -33 8 -36 12 -4 5 -23 9 -43 9 -20 0 -36 4 -36 8 0 4
-6 8 -12 7 -59 -2 -98 4 -92 15 5 7 3 8 -7 3 -19 -13 -49 -14 -49 -2 0 5 -6 4
-14 -2 -9 -7 -17 -8 -20 -2 -5 7 -34 8 -43 1 -4 -3 -42 -3 -45 0 -9 6 -38 7
-38 1 0 -4 -15 -8 -32 -10 -50 -4 -72 -8 -88 -14 -16 -7 -75 -18 -102 -20 -10
-1 -18 -5 -18 -10 0 -5 -7 -4 -15 3 -13 11 -14 10 -9 -5 5 -11 3 -16 -3 -12
-5 3 -22 -1 -37 -9 -16 -7 -35 -14 -42 -14 -8 0 -14 -4 -14 -9 0 -5 -8 -11
-17 -14 -24 -8 -110 -57 -100 -57 5 0 2 -7 -7 -15 -8 -8 -17 -15 -20 -15 -9 0
-51 -47 -54 -61 -4 -15 -61 -69 -73 -69 -4 0 -9 -8 -13 -17 -5 -18 -26 -53
-36 -63 -8 -8 -30 -75 -30 -93 0 -9 -6 -17 -12 -17 -9 0 -8 -4 2 -10 10 -6 11
-10 3 -10 -7 0 -12 -3 -12 -7 1 -5 1 -21 0 -36 -1 -20 -5 -26 -13 -21 -10 6
-10 4 -3 -7 12 -17 13 -39 1 -57 -4 -7 -3 -19 3 -26 6 -7 8 -16 4 -20 -11 -11
-12 -36 -1 -36 6 0 4 -7 -3 -17 -12 -14 -12 -16 0 -8 10 6 12 4 6 -6 -13 -20
-13 -49 -1 -49 6 0 4 -5 -4 -10 -13 -9 -13 -10 0 -10 13 0 13 -1 0 -10 -8 -5
-10 -10 -4 -10 10 0 13 -20 14 -97 0 -13 5 -23 11 -23 7 0 7 -6 -2 -17 -8 -9
-9 -14 -3 -10 18 11 24 -19 9 -40 -8 -10 -15 -14 -15 -8 0 5 -8 -2 -17 -15
-12 -16 -17 -45 -18 -86 0 -34 3 -60 6 -58 4 2 9 -3 13 -11 3 -8 0 -15 -7 -15
-8 0 -8 -3 -2 -8 6 -4 10 -17 9 -29 -1 -13 2 -23 6 -23 4 0 7 -6 7 -12 1 -18
11 -83 13 -83 2 0 11 -38 12 -52 1 -7 5 -10 10 -7 4 3 8 -2 8 -10 0 -19 38
-46 56 -39 15 6 50 -61 45 -85 -1 -8 5 -23 15 -33 13 -15 14 -19 3 -19 -8 0
-10 -3 -4 -8 6 -4 24 -34 40 -67 17 -33 39 -68 49 -78 10 -9 15 -17 11 -17 -5
0 3 -13 18 -28 15 -16 24 -31 20 -35 -3 -4 1 -7 11 -7 9 0 14 -4 11 -10 -3 -5
2 -10 11 -10 10 0 15 -2 12 -5 -5 -6 48 -65 58 -65 3 0 10 -5 17 -10 48 -40
65 -52 105 -72 25 -12 41 -23 34 -26 -7 -2 -10 -7 -7 -12 3 -4 -20 -8 -50 -8
-33 1 -55 5 -55 12 0 6 -5 4 -10 -4 -8 -12 -10 -12 -10 -1 0 9 -9 12 -30 9
-16 -3 -30 -1 -30 4 0 5 -4 6 -10 3 -5 -3 -10 -1 -10 4 0 6 -3 10 -7 10 -25
-4 -43 2 -37 13 4 6 3 8 -3 5 -5 -3 -21 0 -36 8 -15 8 -27 12 -27 9 0 -3 -12
4 -26 15 -15 11 -30 18 -35 15 -5 -3 -9 -1 -9 4 0 5 -18 17 -40 27 -22 10 -40
22 -40 27 0 4 -9 8 -20 8 -10 0 -23 8 -29 18 -5 9 -13 16 -18 16 -13 -2 -53
19 -53 28 0 4 -6 8 -14 8 -8 0 -17 7 -20 16 -4 9 -13 14 -22 10 -8 -3 -12 -2
-9 4 3 6 -1 10 -9 10 -9 0 -16 5 -16 10 0 6 -7 10 -15 10 -8 0 -15 5 -15 10 0
6 -7 10 -15 10 -7 0 -18 6 -22 13 -4 7 -28 28 -53 47 -51 40 -70 61 -63 73 2
4 -1 6 -9 5 -7 -2 -12 5 -12 15 1 9 -4 17 -10 17 -13 0 -16 153 -4 166 5 4 2
14 -5 22 -9 13 -9 14 1 8 12 -7 17 25 14 92 -1 12 2 21 6 18 5 -3 8 5 8 17 1
12 4 42 8 67 5 25 9 57 10 73 0 15 4 27 8 27 3 0 5 8 3 18 -1 9 1 22 6 28 5 6
9 25 11 42 1 18 5 32 8 32 6 0 11 33 13 77 1 12 5 19 11 16 5 -4 7 3 4 15 -4
13 -1 22 5 22 7 0 5 5 -3 10 -13 9 -7 14 12 11 4 0 5 6 2 14 -4 8 -11 12 -18
9 -6 -3 -4 0 4 8 19 17 25 48 8 48 -10 0 -10 2 1 9 9 6 12 20 9 40 -2 17 0 33
6 35 8 3 8 5 0 5 -5 1 -9 15 -8 32 1 17 0 28 -3 25 -3 -3 -11 1 -19 8 -13 14
-15 56 -2 56 4 0 5 9 3 19 -3 17 24 36 48 32 4 -1 7 4 7 9 0 6 7 10 15 10 8 0
15 5 15 10 0 6 7 10 15 10 8 0 15 5 15 11 0 5 4 8 9 4 5 -3 17 5 25 17 9 12
16 18 16 13 1 -6 8 3 16 18 8 15 19 25 24 22 6 -4 10 -1 10 4 0 6 0 13 0 16 0
2 19 25 43 49 109 115 134 145 124 150 -8 3 -7 5 2 5 16 1 -27 38 -49 42 -24
5 -90 -11 -90 -21 0 -6 -7 -10 -16 -10 -8 0 -12 -4 -9 -10 3 -5 2 -10 -4 -10
-5 0 -23 -11 -39 -25 -16 -13 -32 -22 -36 -18 -3 3 -6 1 -6 -5 0 -8 -7 -9 -24
-2 -13 5 -27 6 -32 2 -4 -4 -5 0 -1 9 3 9 0 22 -6 29 -9 10 -9 11 3 5 13 -8
13 -6 2 8 -9 10 -11 25 -6 39 4 13 8 34 9 48 1 14 4 30 7 35 4 9 14 39 24 80
1 6 8 24 15 40 7 17 11 36 10 43 -1 6 3 12 9 12 6 0 9 4 5 10 -3 5 1 26 10 47
9 20 13 43 11 50 -3 7 -1 13 4 13 15 0 8 21 -16 47 -14 16 -28 22 -45 19 -13
-2 -27 -5 -31 -5 -3 -1 -5 -12 -4 -26 2 -13 -1 -22 -5 -19 -5 3 -9 2 -10 -3
-2 -26 -9 -47 -16 -52 -4 -3 -9 -13 -10 -21 -4 -37 -14 -65 -22 -68 -6 -2 -8
-9 -5 -15 2 -7 -2 -21 -10 -32 -15 -20 -15 -20 -16 3 0 12 6 22 13 22 8 0 7 4
-3 10 -11 7 -12 10 -2 10 10 0 12 10 9 35 -3 19 -1 37 3 40 5 3 7 14 5 25 -2
11 0 20 4 20 4 0 7 18 7 41 -1 22 2 43 6 45 5 3 6 10 2 15 -3 5 0 16 6 24 10
11 10 15 1 15 -7 0 -9 4 -6 10 7 12 -38 57 -58 57 -7 0 -19 -6 -26 -14z"/>
</g>
</svg>
